<mxfile host="app.diagrams.net" modified="2022-07-14T00:59:42.709Z" agent="5.0 (Windows NT 10.0; Win64; x64) AppleWebKit/537.36 (KHTML, like Gecko) Chrome/103.0.5060.114 Safari/537.36 Edg/103.0.1264.49" etag="vhCcITdmXozIKBHH2ozb" version="20.1.1" type="github">
  <diagram id="-hINJ59QmnBtNlHB9a6_" name="Page-1">
    <mxGraphModel dx="782" dy="705" grid="1" gridSize="10" guides="1" tooltips="1" connect="1" arrows="1" fold="1" page="1" pageScale="1" pageWidth="827" pageHeight="1169" math="0" shadow="0">
      <root>
        <mxCell id="0" />
        <mxCell id="1" parent="0" />
        <mxCell id="-YEtm873aJOPw0g3w8N5-1" value="" style="rounded=1;whiteSpace=wrap;html=1;" vertex="1" parent="1">
          <mxGeometry x="310" y="130" width="120" height="60" as="geometry" />
        </mxCell>
        <mxCell id="-YEtm873aJOPw0g3w8N5-6" value="" style="endArrow=classic;html=1;rounded=0;" edge="1" parent="1" source="-YEtm873aJOPw0g3w8N5-1" target="-YEtm873aJOPw0g3w8N5-7">
          <mxGeometry width="50" height="50" relative="1" as="geometry">
            <mxPoint x="380" y="390" as="sourcePoint" />
            <mxPoint x="370" y="380" as="targetPoint" />
          </mxGeometry>
        </mxCell>
        <mxCell id="-YEtm873aJOPw0g3w8N5-7" value="" style="rounded=1;whiteSpace=wrap;html=1;" vertex="1" parent="1">
          <mxGeometry x="310" y="350" width="120" height="60" as="geometry" />
        </mxCell>
      </root>
    </mxGraphModel>
  </diagram>
</mxfile>
